<svg xmlns="http://www.w3.org/2000/svg" xmlns:xlink="http://www.w3.org/1999/xlink" xmlns:lucid="lucid" width="602" height="462"><g transform="translate(-119 141)" lucid:page-tab-id="0_0"><path d="M340 46a6 6 0 0 1 6-6h148a6 6 0 0 1 6 6v88a6 6 0 0 1-6 6H346a6 6 0 0 1-6-6z" stroke="#282c33" stroke-width="2" fill="#e3fae3"/><use xlink:href="#a" transform="matrix(1,0,0,1,352,52) translate(29.72839506172842 41.52777777777777)"/><path d="M260 90c0 22.1-26.86 40-60 40s-60-17.9-60-40 26.86-40 60-40 60 17.9 60 40z" stroke="#282c33" stroke-width="2" fill="#fff3d9"/><use xlink:href="#b" transform="matrix(1,0,0,1,145,55) translate(28.388888888888903 40.06249999999999)"/><path d="M480 260c0 22.1-26.86 40-60 40s-60-17.9-60-40 26.86-40 60-40 60 17.9 60 40z" stroke="#282c33" stroke-width="2" fill="#fff3d9"/><use xlink:href="#c" transform="matrix(1,0,0,1,365,225) translate(21.194444444444464 40.06249999999999)"/><path d="M700 90c0 22.1-26.86 40-60 40s-60-17.9-60-40 26.86-40 60-40 60 17.9 60 40z" stroke="#282c33" stroke-width="2" fill="#fff3d9"/><use xlink:href="#d" transform="matrix(1,0,0,1,585,55) translate(2.8611111111111427 40.06249999999999)"/><path d="M480-80c0 22.1-26.86 40-60 40s-60-17.9-60-40 26.86-40 60-40 60 17.9 60 40z" stroke="#282c33" stroke-width="2" fill="#fff3d9"/><use xlink:href="#e" transform="matrix(1,0,0,1,365,-115) translate(34.6388888888889 40.06249999999999)"/><path d="M420 38v-76" stroke="#3a414a" stroke-width="2" fill="none"/><path d="M420.98 39h-1.96v-1.03h1.96zM420-39l.98-.03v1.06h-1.96v-1.07z" stroke="#3a414a" stroke-width=".05" fill="#3a414a"/><path d="M338 90h-76" stroke="#3a414a" stroke-width="2" fill="none"/><path d="M339 90.97h-1.03v-1.94H339zM262.03 90.97h-1.07L261 90l-.03-.97h1.06z" stroke="#3a414a" stroke-width=".05" fill="#3a414a"/><path d="M502 90h76" stroke="#3a414a" stroke-width="2" fill="none"/><path d="M502.03 90.97H501v-1.94h1.03zM579 90l.03.97h-1.06v-1.94h1.07z" stroke="#3a414a" stroke-width=".05" fill="#3a414a"/><path d="M420 142v76" stroke="#3a414a" stroke-width="2" fill="none"/><path d="M420.98 142.03h-1.96V141h1.96zM420.98 219.04L420 219l-.98.03v-1.06h1.96z" stroke="#3a414a" stroke-width=".05" fill="#3a414a"/><defs><path d="M185-189c-5-48-123-54-124 2 14 75 158 14 163 119 3 78-121 87-175 55-17-10-28-26-33-46l33-7c5 56 141 63 141-1 0-78-155-14-162-118-5-82 145-84 179-34 5 7 8 16 11 25" id="f"/><path d="M59-47c-2 24 18 29 38 22v24C64 9 27 4 27-40v-127H5v-23h24l9-43h21v43h35v23H59v120" id="g"/><path d="M84 4C-5 8 30-112 23-190h32v120c0 31 7 50 39 49 72-2 45-101 50-169h31l1 190h-30c-1-10 1-25-2-33-11 22-28 36-60 37" id="h"/><path d="M85-194c31 0 48 13 60 33l-1-100h32l1 261h-30c-2-10 0-23-3-31C134-8 116 4 85 4 32 4 16-35 15-94c0-66 23-100 70-100zm9 24c-40 0-46 34-46 75 0 40 6 74 45 74 42 0 51-32 51-76 0-42-9-74-50-73" id="i"/><path d="M100-194c63 0 86 42 84 106H49c0 40 14 67 53 68 26 1 43-12 49-29l28 8c-11 28-37 45-77 45C44 4 14-33 15-96c1-61 26-98 85-98zm52 81c6-60-76-77-97-28-3 7-6 17-6 28h103" id="j"/><path d="M117-194c89-4 53 116 60 194h-32v-121c0-31-8-49-39-48C34-167 62-67 57 0H25l-1-190h30c1 10-1 24 2 32 11-22 29-35 61-36" id="k"/><g id="a"><use transform="matrix(0.06172839506172837,0,0,0.06172839506172837,0,0)" xlink:href="#f"/><use transform="matrix(0.06172839506172837,0,0,0.06172839506172837,14.81481481481481,0)" xlink:href="#g"/><use transform="matrix(0.06172839506172837,0,0,0.06172839506172837,20.987654320987644,0)" xlink:href="#h"/><use transform="matrix(0.06172839506172837,0,0,0.06172839506172837,33.333333333333314,0)" xlink:href="#i"/><use transform="matrix(0.06172839506172837,0,0,0.06172839506172837,45.679012345678984,0)" xlink:href="#j"/><use transform="matrix(0.06172839506172837,0,0,0.06172839506172837,58.024691358024654,0)" xlink:href="#k"/><use transform="matrix(0.06172839506172837,0,0,0.06172839506172837,70.37037037037032,0)" xlink:href="#g"/></g><path d="M190 0L58-211 59 0H30v-248h39L202-35l-2-213h31V0h-41" id="l"/><path d="M141-36C126-15 110 5 73 4 37 3 15-17 15-53c-1-64 63-63 125-63 3-35-9-54-41-54-24 1-41 7-42 31l-33-3c5-37 33-52 76-52 45 0 72 20 72 64v82c-1 20 7 32 28 27v20c-31 9-61-2-59-35zM48-53c0 20 12 33 32 33 41-3 63-29 60-74-43 2-92-5-92 41" id="m"/><path d="M210-169c-67 3-38 105-44 169h-31v-121c0-29-5-50-35-48C34-165 62-65 56 0H25l-1-190h30c1 10-1 24 2 32 10-44 99-50 107 0 11-21 27-35 58-36 85-2 47 119 55 194h-31v-121c0-29-5-49-35-48" id="n"/><g id="b"><use transform="matrix(0.055555555555555525,0,0,0.055555555555555525,0,0)" xlink:href="#l"/><use transform="matrix(0.055555555555555525,0,0,0.055555555555555525,14.38888888888888,0)" xlink:href="#m"/><use transform="matrix(0.055555555555555525,0,0,0.055555555555555525,25.499999999999986,0)" xlink:href="#n"/><use transform="matrix(0.055555555555555525,0,0,0.055555555555555525,42.111111111111086,0)" xlink:href="#j"/></g><path d="M212-179c-10-28-35-45-73-45-59 0-87 40-87 99 0 60 29 101 89 101 43 0 62-24 78-52l27 14C228-24 195 4 139 4 59 4 22-46 18-125c-6-104 99-153 187-111 19 9 31 26 39 46" id="o"/><path d="M100-194c62-1 85 37 85 99 1 63-27 99-86 99S16-35 15-95c0-66 28-99 85-99zM99-20c44 1 53-31 53-75 0-43-8-75-51-75s-53 32-53 75 10 74 51 75" id="p"/><path d="M24 0v-261h32V0H24" id="q"/><path d="M177-190C167-65 218 103 67 71c-23-6-38-20-44-43l32-5c15 47 100 32 89-28v-30C133-14 115 1 83 1 29 1 15-40 15-95c0-56 16-97 71-98 29-1 48 16 59 35 1-10 0-23 2-32h30zM94-22c36 0 50-32 50-73 0-42-14-75-50-75-39 0-46 34-46 75s6 73 46 73" id="r"/><g id="c"><use transform="matrix(0.055555555555555525,0,0,0.055555555555555525,0,0)" xlink:href="#o"/><use transform="matrix(0.055555555555555525,0,0,0.055555555555555525,14.38888888888888,0)" xlink:href="#p"/><use transform="matrix(0.055555555555555525,0,0,0.055555555555555525,25.499999999999986,0)" xlink:href="#q"/><use transform="matrix(0.055555555555555525,0,0,0.055555555555555525,29.88888888888887,0)" xlink:href="#q"/><use transform="matrix(0.055555555555555525,0,0,0.055555555555555525,34.27777777777776,0)" xlink:href="#j"/><use transform="matrix(0.055555555555555525,0,0,0.055555555555555525,45.388888888888864,0)" xlink:href="#r"/><use transform="matrix(0.055555555555555525,0,0,0.055555555555555525,56.49999999999997,0)" xlink:href="#j"/></g><path d="M30-248c118-7 216 8 213 122C240-48 200 0 122 0H30v-248zM63-27c89 8 146-16 146-99s-60-101-146-95v194" id="s"/><path d="M115-194c55 1 70 41 70 98S169 2 115 4C84 4 66-9 55-30l1 105H24l-1-265h31l2 30c10-21 28-34 59-34zm-8 174c40 0 45-34 45-75s-6-73-45-74c-42 0-51 32-51 76 0 43 10 73 51 73" id="t"/><path d="M114-163C36-179 61-72 57 0H25l-1-190h30c1 12-1 29 2 39 6-27 23-49 58-41v29" id="u"/><g id="d"><use transform="matrix(0.055555555555555525,0,0,0.055555555555555525,0,0)" xlink:href="#s"/><use transform="matrix(0.055555555555555525,0,0,0.055555555555555525,14.38888888888888,0)" xlink:href="#j"/><use transform="matrix(0.055555555555555525,0,0,0.055555555555555525,25.499999999999986,0)" xlink:href="#t"/><use transform="matrix(0.055555555555555525,0,0,0.055555555555555525,36.61111111111109,0)" xlink:href="#m"/><use transform="matrix(0.055555555555555525,0,0,0.055555555555555525,47.7222222222222,0)" xlink:href="#u"/><use transform="matrix(0.055555555555555525,0,0,0.055555555555555525,54.33333333333331,0)" xlink:href="#g"/><use transform="matrix(0.055555555555555525,0,0,0.055555555555555525,59.88888888888886,0)" xlink:href="#n"/><use transform="matrix(0.055555555555555525,0,0,0.055555555555555525,76.49999999999996,0)" xlink:href="#j"/><use transform="matrix(0.055555555555555525,0,0,0.055555555555555525,87.61111111111106,0)" xlink:href="#k"/><use transform="matrix(0.055555555555555525,0,0,0.055555555555555525,98.72222222222216,0)" xlink:href="#g"/></g><path d="M143 4C61 4 22-44 18-125c-5-107 100-154 193-111 17 8 29 25 37 43l-32 9c-13-25-37-40-76-40-61 0-88 39-88 99 0 61 29 100 91 101 35 0 62-11 79-27v-45h-74v-28h105v86C228-13 192 4 143 4" id="v"/><path d="M30-248c87 1 191-15 191 75 0 78-77 80-158 76V0H30v-248zm33 125c57 0 124 11 124-50 0-59-68-47-124-48v98" id="w"/><path d="M205 0l-28-72H64L36 0H1l101-248h38L239 0h-34zm-38-99l-47-123c-12 45-31 82-46 123h93" id="x"/><g id="e"><use transform="matrix(0.055555555555555525,0,0,0.055555555555555525,0,0)" xlink:href="#v"/><use transform="matrix(0.055555555555555525,0,0,0.055555555555555525,15.555555555555546,0)" xlink:href="#w"/><use transform="matrix(0.055555555555555525,0,0,0.055555555555555525,27.38888888888887,0)" xlink:href="#x"/></g></defs></g></svg>